<?xml version="1.0" encoding="UTF-8"?>
<svg id="Ebene_1" data-name="Ebene 1" xmlns="http://www.w3.org/2000/svg" viewBox="0 0 70 98.5">
  <defs>
    <style>
      .cls-1 {
        fill: #bc2a1c;
        fill-rule: evenodd;
      }
    </style>
  </defs>
  <path class="cls-1" d="M33.25,11.1c2.31,.51,4.36,0,5.54,1.98,.03,.61-.7,.89-.2,1.39,.03,.57,.83,.36,1.39,.4,.93,.78,.54,2.01,.79,3.17-1.09,.15-.87,1.79-.79,2.57-.51-.12-.71,.08-.59,.59-2.61,.18-4.78,.32-6.93-.4-1.02-1.55,.21-3.17-.59-4.75,.58-1.53,1.02-3.21,1.39-4.95Z"/>
  <path class="cls-1" d="M2.97,31.7c.04-.23,.2-.11,.2,0,1.03-.48,.68-3.35,.79-3.56-.05-.65,.77-.42,.79-.99,.13-.72-.13-1.06-.4-1.39,1.52-1.4,.68-3.68,2.57-5.15-1.02-3.07,1.49-6.37,2.57-9.31,.08-.22,.14-.55,.59-.59-.08-.38-.42-.5-.4-.99h.79c.25-1.14,1.1-1.67,1.19-2.97,.81-.71,2.08-.96,2.18-2.38,.83-.81,2.45-.85,3.17-1.78,1.46,.08,3.41-.53,4.95-.99,.29-.09,.41-.03,.4-.4,.41,.12,.64,.42,.99,.59,.6-.32,1.44-.4,1.78-.99C30.55,0,36.4,.28,42.16,.21c.69,0,1.19-.26,1.98-.2,1.15,.1,2.47,.5,3.76,.59,2.12,.16,3.52-.22,5.15,.2,1.11,.29,1.74,.73,3.36,.99,.69,.11,1.26,.69,1.78,.79,.34,.06,.45-.31,.79-.2,.78,.26,1.43,.96,2.18,1.19,.19,.4,.4,.78,.59,1.19,.36,.02,.42-.24,.79-.2,.35,1.57,1.53,2.29,2.18,3.56-.28,1.18,.55,1.48,.2,2.18,.49,.44,.97,.88,1.58,1.19,.53,2.76,1.55,4.18,1.78,6.93,.11,.7-.7,.49-.6,1.19,.03,.37,.67,.12,.79,.4-1.1,.95,.4,1.98-.6,3.37-.63,.17-.61-.31-.99-.4-.19,.98,.59,.99,1.19,1.19-.91,.64,.39,1.5-.79,2.18,.37,.22,.69,.49,1.19,.59,.51,1.79-1.01,2.17-.6,3.96-1.22-.37-.9,.81-1.98,.59-.14,.61-.14,.38,0,.99,.6,.06,1.05-1.04,1.58-.4,.24-.56,.71-.87,1.58-.79,.2,.7,.12,2.2-.99,2.18,.24,.31,.63,.77,.2,1.19-.41,.43-.64-.02-.99-.2-.47,.25,.2,1.65-.99,1.19,.04,.35-.2,.99,.39,.79-.25,.69-.57,.37-.99,.59-.09,.62,.42,.63,.99,.59,.44-.08,.08-.98,.2-1.39,.61,.15,.38-.54,.99-.4,1.34,.51,.96,1.31,1.39,2.38,.2,.5,1.04,.59,.59,1.19-.61,.14-.72-.2-1.19-.2,.87,1.39-.45,2.75,.2,4.36-.52,.2-.67,.79-1.19,.99,.15,.18,.36,.3,.6,.4-.48,.58-1.25,.86-1.39,1.78-.49-.02-.61-.37-.99,0,.04,1.08,.9,.32,1.39,.2,.25,1.14,.07,2.03,.79,2.97,.04,.5-.44,.48-.59,.79-.06,.46,.57,.22,.59,.59-.35,1.83-.88,4.29,.2,6.34-.82,1.01-.36,2.22,.39,3.37-.23,.56-.27,1.31-.79,1.58-.07,1.14,.35,2.31-.2,3.37,1.33,.29,.71,2.3,1.39,2.77-.16,.44-.69,.5-.99,.79,.86,.49-.29,1.59,.4,1.59-.68,.38-.17,1.94-1.39,1.78,.09,.77,.91,.81,1.39,1.19-.42,1.77-.19,3.34-1.19,4.75-1.82-.72-1.77,.67-2.57,1.39,.41,.48,.28,.42,.2,1.19,1.1-.1,.95-.8,.79-1.78,.66-.33,1.36-.05,1.98,.2-.08,.93-.44,1.15-.39,1.78-.47,0-.58-.34-1.19-.2-.19,.15-.3,.36-.4,.59,.18,.88,1.11,1,1.58,1.59-.33,1.27-.04,2.03-.2,3.56-1.16,.32-1.13,1.43-.99,2.57-1.13,.38-1.74,1.3-1.98,2.57-2.34,1.08-5.6,3.76-8.51,2.37,.22-.37,.23-.95,.99-.79,.55-.9,1.14-1.76,2.18-2.18,.02-.36-.24-.42-.2-.79,1.24,.05,.78-1.59,1.98-1.59-.07-1.46,.93-1.84,.99-3.17,1.69-.39,2.18,1.09,3.36,.59,.17-.56-.28-.51-.2-.99-1.14,.6-1.92-.3-2.57-.79-.1-.62,.61-.45,.4-1.19-.47-.45-.73,.43-1.58,.2,.45-2.7-3.86-1.18-5.15-1.59-.27,.19-.4,.53-.59,.79-.73-.6-2.63,.29-4.16,.2-1.24-.08-2.23-.65-3.17-.4-.48,.9-1.22,1.56-1.58,2.57,.73,.62-.37,2.18,.79,2.57-.27,.39-.38,.94-.6,1.39,.09,.64,.67,.79,.99,1.19,.21,1.8-.89,2.28-.99,3.76,.03,.44,.84,.08,1.19,.2,.02,.32-.1,.76,.2,.79-.44,.55-1.1,.88-1.58,1.39-3.91,.26-8.07,1.74-11.48,.99-2.56-.57-5.34-.15-8.31-.2-.58,.08-.17,1.15-1.19,.79-.11-.7,.7-.48,.59-1.19-1.1-1.17-3.02-.69-4.35-1.58-2.21,.49-3.71-.72-5.94-.79-.15-.18-.21-.45-.2-.79-2.35,.34-3.25-1.23-5.74-1.19-.55-.9-1.66-1.24-2.57-1.78-.07-.46-.24-.82-.4-1.19-.88-.38-1.25-1.26-1.78-1.98,.06-2.41-1.2-3.97-1.39-6.53,.67,0,.4-.92,.79-1.19-.56-.43-1.27-.71-1.39-1.58,.16-.11,.32-.21,.59-.2-.38-.41-.1-1.49-.99-1.39-.04-.43,.16-.63,.59-.59-.3-.28-.63-.96-.2-1.39-.79-.92-1.51-1.92-1.58-3.57,.61,.15,.24-.68,.99-.4-.24-1.14-.78-1.99-1.19-2.97,.72-.88,.41-1.66,1.39-2.38-.77-1.32-.67-2.33-.99-3.96-.06-.27-.5-.16-.79-.2,.12-.48,.29-.9,.2-1.58-1.04-1.17-.62-2.51-.59-3.76,.38-.08,.36-.56,.99-.4-2.09-1.17-1.23-4.18-.99-6.14,.96,.22,1.32,1.06,2.57,.99,.16-.56-.28-.51-.2-.99-1.15,.67-1.86-.94-2.77-.6,.32-1.22,1.45-.1,2.18,0,1.4-.72,2.33-1.89,2.97-3.37-.36-.63-1.45-1.36-.99-2.18-1.31,.35-1.04,1.34-2.37,1.39-.22,1.47,1.01,1.49,.59,3.17-.58-.25-1.43,.22-2.18-.2-.36-1.03-.03-2,.2-2.97,.49,.02,.61,.37,.99,0-.57-.29-.89-.82-1.19-1.39,.41-.38,.44-1.14,.99-1.39-.09-.72-.51-.96-.2-1.58,.56-.03,.46,.59,.99,.59,.9,.24,1.19-.73,1.78-.2-.02-.81-1.07-.59-1.58-.4-.14-.44-.59-.99-.2-1.39-1.36-.96,.22-1.68,0-2.77,.97-.15,1.73-.51,2.18-1.19,.14-.73-.69-.49-.99-.79,.74-.42-.2-1.35,.59-1.78-.23-.36-.52-.67-.79-.99ZM30.68,4.96c.31,.02,.69-.03,.59,.4-1.56,.35-2.15,1.09-3.76,.99-.15,.61,.54,.38,.39,.99-1.32,.27-.16,1.91-.99,2.77,.35,.37,.61-.27,.79,.4-.29,1.3-.3,2.87-1.19,3.56,.14,.72,.8,.91,.79,1.78-.74,.25-.28,1.7-1.58,1.39-.02,1.01,.48,1.49,1.19,1.78-.58,1.32,1.2,2.24,.2,3.56,.6,.59,.88,.88,.59,1.98,.5,.29,1.09,.49,1.39,.99-.34,2.78,1.37,3.51,1.98,5.35,1.98-.4,3.31,1.33,5.54,.4,1.18,.94,2.2-.36,3.76,0,.5-1.69,2.43-1.13,3.36-1.58-.25,.12,.4-.4,.59-.59,.75-.72,.59-1.47,1.58-1.78,.05-1.85,1.17-3.06,.79-4.75,1.01,.35,.27-1.05,.99-.99,.29-.11,1.02,.23,.99-.2-1.11-.2-1.24-1.07-2.57-.59-.19-.92,.26-1.19,.39-1.78-.18-.21-.73-.06-.59-.59,1.24-1.18-.06-2.71-.2-4.55,.26-.64,.97-1.05,.59-1.78,.42-.18,.88-.31,1.19-.59v-1.39c-.3-.03-.73,.07-.79-.2-.06-.52,.07-.85,.59-.79,0-.47-.34-.58-.2-1.19-1.39,.16-1.64-.3-1.58-1.19-.47,0-.58-.34-1.19-.2,.23-.62-.31-.48-.4-.79-1.5-.19-2.89-.28-4.16,.2v-.59c-2.52,.88-4.5-1.9-6.93-.59,0-.96-2.09-1.11-2.18,.2Zm18.41,0c.35,.18,.5,.55,1.19,.4-.27-.8,.43-.63,.4-1.19-.86-.06-1.31,.27-1.59,.79Zm5.54,2.38c-.63,.61-1.79,.29-2.37-.2-.05,1.22-1.67,1.01-2.18,.4-.27,1.13,.45,1.26,.6,1.98-.41,.12-.68,.38-.79,.79,.14,.39,1.18-.12,.99,.59-.03,.37-.67,.12-.79,.4-.42,.94,.49,1.14,.6,1.98,.05,.36-.42,1.41-.4,1.58,.03,.19,.72,.73,.79,.99,.48,1.62-.5,4.2,.79,5.35-.32,.4-.42,1.03-.79,1.38,1.88,2.68-2.8,3.21-2.57,6.14-.23,.17-.53,.26-.99,.2-.3,1.36-1.64,2.25-2.38,2.57,.01,1.6-1.86,1.31-3.17,1.58-2.06,2.26-5.41,2.84-9.1,2.77-.59-.47-1.52-.59-2.57-.59-.7-1.15-2.54-1.16-3.36-2.18-1.21-1.83-2.92-3.15-3.17-5.94,.27,0,.44-.09,.59-.2-.15-.9-1.07-1.04-1.38-1.78-.52-1.08,.62-2.13,0-3.56,.42-.5,.79-1.05,1.19-1.58-.81,0-1.19-.56-1.39-1.19-.34-1.08,.27-3.34,.79-3.96-.22-.37-.49-.69-.59-1.19,.14-.51,.65-.67,.79-1.19-.69-.73,.21-1.65,.2-2.57-.01-.96-.5-1.58-.59-2.38-2.71-1.35-2.94,1.35-5.54,1.19-.02,.31,.03,.69-.4,.59-.47-.06-.12-.94-.79-.79-.42,1.19-.2,.97,.4,1.78-.42,.44-.59-.25-1.19-.2-.57,.68-.57,1.94-1.58,2.18v2.18c-.63,.6-1.27,2.1-.99,2.97-.69,.74-1.83,1-1.39,2.38-.52-.06-.85,.07-.79,.59,1.61,2.25-.71,5.19-.4,7.33-.87,.67-1.34,1.92-1.58,2.97-.08,.36,.24,.44,.2,.79-.14,1.25-.87,2.77-.59,4.36-.27,.06-.38,.28-.79,.2,.69,1.86-1,2.56-.79,4.55-.7,.03-.71,.74-.99,1.19-.55-.11-.36-.95-.59-1.39-.6,0-1.3-.12-1.19,.59,1.06,.4,1.68,.79,1.19,1.58-.21,.34-.09,1.23,.2,1.98,.4,1.05,.97,1.25,1.39,1.78,.11,1.21,.39,2.25,1.98,1.98,.46-.27,.31-1.14,.59-1.58,1.46,.5,3.69,.15,4.75-.4,.8,.68,1.87,.01,2.97,0,1.79-.02,3.89,.41,5.94,.4,1.21,0,2.46-.27,3.56-.2,.62,.65,1.9,1.09,2.57,.59,2.09,1.06,5.6,.63,7.52,.99,1.19,.22,2.21-.22,3.17-.2,.39,1,2.61,.31,2.77,1.98,.49,.03,.61-.31,.99-.4,.68,.61,1.4,.32,2.18,.2,.64,.76,1.86,.28,2.77,.4,.96,.12,2.24,.78,2.97,.2,.42,1.17,2.49,.68,3.36,1.39,1.79-.57,3.81,.65,5.15,.59,.45,.94,1.37,1.4,2.38,1.78,.22-.9,1.17-1.07,1.78-1.58-.65-.11-.3-.77,.4-.6-1.38-2.22-.44-3.89,.4-5.94-.75-1.29-.98-3.34-.4-5.15-.37-.48-.76-.96-.99-1.58,1.15-1.7,1.59-3.31,.79-5.35,.9-.86-.38-3,0-3.96-.12-.27-.76-.03-.79-.4,.12-.47,.86-.32,.59-1.19-.05-.41-.74-.19-.79-.59,.29-.7,.88-1.1,.79-2.18-.49-.23-.73-.72-.59-1.58-.14-.45-1.37,.18-1.19-.59-.04-.43,.7-.09,.99-.2-.57-.95-.68-2.36-1.58-2.97,.74-.38,.08-.57,0-1.19-.14-1.09,.28-2.6,0-4.16-.78-.53-1.54-1.1-1.39-2.57-.89-.82-1.75-1.68-2.37-2.77-.14-.73,.34-.85,.2-1.58-.56-.3-1.6-.11-1.39-1.19-1.37,.32-1.32-.79-2.18-.99-.34,.32-.49,.83-.4,1.59Zm10.89,13.66c.71,.36,1.3-.17,1.39-.99-.56,.03-.39-.67-1.19-.4,.11,.64-.13,.92-.2,1.39Zm.59,1.39c.14-.53-.41-.38-.59-.59-.04,.43,.16,.63,.59,.59ZM5.54,38.82c.14-.67-.33-.72-.79-.79-.14,.66,.33,.72,.79,.79Zm60.96-.4c.39,0,.25,.54,.79,.4,.06-.27,.28-.38,.2-.79-.49-.03-.96-.04-.99,.4Zm-63.34,.99v-.4c-.37-.66-.97,.59,0,.4Zm2.37,7.72c.24-.29,.79-.26,.79-.79-.37,.04-.44-.22-.79-.2,.26,.49-.58,.82,0,.99Zm.2,1.78c.63-.37,1.21,.43,1.39-.4-.27-.33-1.04-.15-.99-.79h-.99c-.08,.67,.87,.31,.59,1.19Zm24.54-.59c-.22,.02-.31-.29-.4,0,0,.2,.35,.25,.4,0Zm.99,.59c-.23,.03-.56-.03-.59,.2,.23-.03,.56,.03,.59-.2Zm-27.31,3.17c-.71,.15-.96,.76-1.98,.59-.39,.86,1.24,1.21,1.58,1.98,.32,1.51-.62,1.76-.79,2.77,.91,.21,1.88,.37,1.98,1.39-1.01,.16-.27,.89-.4,1.78,.55,.25,1.01,.58,1.78,.6-.04-.71,.13-1.19,.59-1.39,1.11,.28,2.17,.18,3.17-.2,.06,.4,.4,.53,.59,.79,1.87,.08,4.1,.51,5.74,0,.19-.06,.56-.59,.79-.59,.14,0,.65,.56,.79,.59,1.07,.24,2.15-.06,3.17,.2,.69-1.59,.69-3.28,.4-4.95,.1-.76,.95-.76,1.19-1.39-1.16-1.36-2.37-2.86-4.35-3.17-1.51-.24-3.18,.11-4.75,0-1.45-.1-2.74-.57-3.56-.59-1.63-.04-3.36,.45-4.95,.2-.6-.1-.89-.73-1.58-.4-.28,1.07,.53,1.05,.59,1.78Zm22.96,.2c.67-.07,.33,.86,.59,1.19-.76,.49-.39,2.12-1.39,2.38,1.15,1.29,.26,2.47-.4,3.56,.52,0,1.17-.11,1.19,.4,.22,1.08-1.03,.82-.39,1.78h-.79c.68,1.55-.25,3.65-.99,4.95,1.48,2.95-.07,5.42,1.98,7.33-.59,1.19-.83,3.5,.39,4.56-1.05,4.08,.8,7.68,1.58,11.88-.05,.28-.33,.33-.4,.59,.38,.41,.64,.95,.79,1.58,1.07,.06,2.26-.02,2.37,.99,1.99,.26,3.65,1.29,5.15,0,.44,.28,.91,.54,1.39,.79,1.01-.72,2.97,.48,4.55-.59,.67-1.33,.46-2.53,.59-3.56,0-.07,.36-.43,.4-.59,.22-1.05-.66-1.43-.59-1.78,.15-.77,1.69-.98,1.39-1.98-.83-.25-1.66,.52-1.78-.2,.04-1.02,1.26-.85,1.39-1.78-.63-.73-1.92-1.72-1.39-2.97-.49,.03-.96,.04-.99-.4,.74,.02,.46-.99,.99-1.19,.11-.7-.7-.49-.59-1.19,.31-.02,.69,.03,.59-.4-.58-1.22,.12-2.4,.2-3.56-.69-.63-1-1.64-1.39-2.57,1.13,.08,.61-1.5,.99-2.18-.37-.29-1.03-.29-1.19-.79,.29-.87,.39-1.16,.2-2.18,.57,.04,1.08,.02,.99-.59-.19-.69-.64,.13-.99-.4,.77-.86,.08-.68-.2-1.19-.26-.49,.3-1.02,0-1.58,1.08-.63,1.72-1.27,2.77-.99-.31-.75-1.37-.74-1.58-1.58,.16-2.02-.1-4.46,.79-5.74-.23-.03-.21-.31-.2-.59-1.2-.39-2.69-.48-2.97-1.78-1.68,.34-3.54,.26-4.35-.79-3,.06-4.74-.07-8.12-.2,.01,.85-.24,.65-.59,1.39Zm17.42-.4c.23,.56,.23,1.03,0,1.59,.7-.23,1.25-.59,1.19-1.59-.62,.1-.77-.43-1.19,0Zm9.5,2.77c-1.7,.59-2.73-1.68-4.55-.99-.21-.19-.06-.73-.59-.59-.04,.62-.99,.33-1.58,.4-.27,.62-.35,1.82,.2,2.18-1.19,2.4-.97,4.18-.79,6.53-.37,.04-.44-.22-.79-.2-.15,1.17-.78,.97-.4,2.38,3.4,2.97,8.46-2.77,11.48,.4,1.58-.72,2.2,.05,3.96-.2-.04,.71,.13,1.19,.6,1.39,.14-1.18,.83-.92,1.98-.79,.22-2.2-.59-3.37-.79-5.15,.31-.02,.69,.03,.59-.4-.55-1.29-.2-2.76-.79-3.96-2.45,1.17-4.88,.04-7.13-.59-.26,0-.18,.35-.4,.4-.36-.23-.67-.52-.99-.79Zm-7.92-.99h.4c.31-.49-.67-.58-.59-.2,.12,.01,.23,.03,.2,.2Zm19.2,1.78c-.31,.02-.69-.03-.59,.4,.13,.26,.42,.37,.79,.4,.23-.86,.33-2.1-.4-2.38-.61,.63,.34,.83,.2,1.58Zm-21.38-.59c.06-.27,.28-.38,.2-.79-.67-.15-.77,.75-.2,.79Zm21.97,4.56c.58-.01,.73-.45,.99-.79-.31-.08-.17-.62-.79-.4-.07,.7-.54,.48-.2,1.19ZM1.78,60.8c.42,.45-.09,.7,.2,1.39,.95-.29,2.19,.71,2.38-.99-.63-.17-.75,.17-.99,.4-.69-.1-.48-1.11-.99-1.39,.06,.46-.57,.22-.59,.6Zm12.67,3.17c-.16,.13-.06,.44-.2,.59,.22-.25-.8,.53-.99,.59-.77,.26-1.81-.53-3.36-.59-1.51-.07-3.15,.76-3.76,.79-1,.06-2.85-1.2-3.17,.4,2.03-.81,2.69,1.02,2.38,3.17-1.08-.02-.93,1.18-2.18,.99,.43,1.22,2.44,.86,2.97,1.98,.08-.44,1.05-.16,1.19,0-.06,.46-.69,.37-.59,.99,2.53,.55,4.12-.61,6.14-.99,2-.38,4.11,.11,5.94-.79,.34-2.24,1.74-3.6,.79-6.34-2.01,.18-2.85-.83-5.15-.79Zm51.07,1.98c-.05,.58,.45,.61,.4,1.19,.66-.17,.9-.76,.59-1.39-.56-.17-.51,.28-.99,.2Zm-3.76,.59h.59c.02-.36-.2-.46-.59-.4v.4Zm-14.05,.6c.01-.34-.15-.51-.4-.6-.28,.29-.29,.77,.4,.6Zm16.82,.79v-.59c-.29,.03-.73-.07-.79,.2,.31,.09,.17,.62,.79,.4Zm-17.81,.99c-.07,.66-.57,.88-.39,1.78-1.88,.4-1.82,3.21-.99,4.75,.61,.26,.77-.16,1.19,.4-.02,.51-.77,.28-.79,.79,2.03,1.14,4.55,.41,6.53,.59,.82,.08,.14,.33,.79,0,1.84-.92,3.18,.61,4.35,.79,1.56,.24,5.63-.23,6.34-1.39-.06-.93-.69-1.29-.79-2.18,.44-.69,2.33-.97,1.98-1.78-.26,.38-.54-.89-1.19-.79-.13-1,.53-1.42,.99-.79-.36-.71,.04-.58,.2-1.19-1.05-1.77-4.26-.31-6.33-1.19-.54,.12-.49,.83-1.19,.79-.62,.1-.77-.28-1.19-.4-2.87,.69-7.18-.4-10.69-.79,.49,.1,.81,.37,1.19,.59Zm19.4,4.16c.96,.55,1.14-1.29,.4-1.19-.18,.35-.55,.5-.4,1.19Zm-52.65,2.77c-1.21-.44-3.5-1-4.75-.2-.46-.89-1.5-.99-2.57-.79-.31,.83,1.02,.03,.99,.6-.11,.54-.63,.69-.59,1.39,.12,.27,.76,.03,.79,.4-.39,2.04,1.31,2.98,0,4.16,.47,1.11,.54,2.62,1.58,3.17-.16,1.22,.32,1.79,.59,2.57,4.95,.68,8.44,2.07,12.87,2.37-.8-1.9-1.94-5.03-.99-7.13,.06-.52-.77-.15-.59-.79h.79c.84-1.69,.35-2.58,.79-4.36-.34-.58-1.29-.56-.99-1.78-.7-.55-1.6-.91-2.77-.99-.32-.15,.04-.97-.59-.79-1.7,.79-2.77,1.29-4.55,2.18Zm-10.09-.99c.15,.04,.23,.17,.2,.4,.73-.36,.8-.34,1.78-.2,.27-1.29-1.89-.85-1.98-.2Zm61.95,8.32c.05-.65-.23-.95-.79-.99,.12,.47,.27,.92,.79,.99Z"/>
</svg>